# AST/ASF file generated using VICON BodyLanguage
# -----------------------------------------------
:version 1.10
:name VICON
:units
  mass 1.0
  length 0.45
  angle deg
:documentation
   .ast/.asf automatically generated from VICON data using
   VICON BodyBuilder and BodyLanguage model FoxedUp or BRILLIANT.MOD
:root
   order TX TY TZ RX RY RZ
   axis XYZ
   position 0 0 0  
   orientation 0 0 0 
:bonedata
  begin
     id 1 
     name lhipjoint
     direction 0.610259 -0.730986 0.305356 
     length 2.50941 
     axis 0 0 0  XYZ
  end
  begin
     id 2 
     name lfemur
     direction 0.34202 -0.939693 0  
     length 7.48822  
     axis 0 0 20  XYZ
    dof rx ry rz
    limits (-160.0 20.0)
           (-70.0 70.0)
           (-60.0 70.0)
  end
  begin
     id 3 
     name ltibia
     direction 0.34202 -0.939693 0   
     length 7.60141   
     axis 0 0 20   XYZ
    dof rx
    limits (-10.0 170.0)
  end
  begin
     id 4 
     name lfoot
     direction 0.0673488 -0.185039 0.980421   
     length 2.04049   
     axis -90 7.62852e-016 20   XYZ
    dof rx rz
    limits (-45.0 90.0)
           (-70.0 20.0)
  end
  begin
     id 5 
     name ltoes
     direction 1.5356e-011 -4.21729e-011 1   
     length 1.02897   
     axis -90 7.62852e-016 20   XYZ
    dof rx
    limits (-90.0 20.0)
  end
  begin
     id 6 
     name rhipjoint
     direction -0.57612 -0.754205 0.315056   
     length 2.43216  
     axis 0 0 0  XYZ 
  end
  begin
     id 7 
     name rfemur
     direction -0.34202 -0.939693 0   
     length 7.42799   
     axis 0 0 -20   XYZ
    dof rx ry rz
    limits (-160.0 20.0)
           (-70.0 70.0)
           (-70.0 60.0)
  end
  begin
     id 8 
     name rtibia
     direction -0.34202 -0.939693 0   
     length 7.69484   
     axis 0 0 -20   XYZ
    dof rx
    limits (-10.0 170.0)
 end
 begin
     id 9 
     name rfoot
     direction -0.111837 -0.30727 0.945028   
     length 2.15769  
     axis -90 -7.62852e-016 -20   XYZ
    dof rx rz
    limits (-45.0 90.0)
           (-20.0 70.0)
  end
  begin
     id 10 
     name rtoes
     direction -1.53539e-011 -4.21878e-011 1   
     length 1.07391   
     axis -90 -7.62852e-016 -20   XYZ
    dof rx
    limits (-90.0 20.0)
  end
  begin
     id 11 
     name lowerback
     direction 0.00552624 0.990109 -0.140195   
     length 2.12403   
     axis 0 0 0   XYZ
    dof rx ry rz
    limits (-20.0 45.0)
           (-30.0 30.0)
           (-30.0 30.0)
  end
  begin
     id 12 
     name upperback
     direction 0.00361898 0.999976 -0.00584723   
     length 2.13232   
     axis 0 0 0   XYZ
    dof rx ry rz
    limits (-20.0 45.0)
           (-30.0 30.0)
           (-30.0 30.0)
  end
  begin
     id 13 
     name thorax
     direction -0.000331275 0.998253 0.0590847   
     length 2.17688   
     axis 0 0 0   XYZ
    dof rx ry rz
    limits (-20.0 45.0)
           (-30.0 30.0)
           (-30.0 30.0)
  end
  begin
     id 14 
     name lowerneck
     direction -0.0561561 0.979832 0.19177   
     length 1.64159   
     axis 0 0 0   XYZ
    dof rx ry rz
    limits (-20.0 45.0)
           (-30.0 30.0)
           (-30.0 30.0)
  end
  begin
     id 15 
     name upperneck
     direction 0.0827153 0.979385 -0.184293   
     length 1.68939   
     axis 0 0 0   XYZ
    dof rx ry rz
    limits (-20.0 45.0)
           (-30.0 30.0)
           (-30.0 30.0)
  end
  begin
     id 16
     name head
     direction 0.0278583 0.995936 -0.0856488  
     length 1.70207  
     axis 0 0 0   XYZ
    dof rx ry rz
    limits (-20.0 45.0)
           (-30.0 30.0)
           (-30.0 30.0)
  end
  begin
     id 17 
     name lclavicle
     direction 0.950993 0.301131 -0.0702275  
     length 3.41652  
     axis 0 0 0   XYZ
    dof ry rz
    limits (-20.0 10.0)
           (0.0 20.0)
  end
  begin
     id 18 
     name lhumerus
     direction 1 -4.48981e-011 -3.9662e-029   
     length 5.32955   
     axis 180 -30 -90   XYZ
    dof rx ry rz
    limits (-60.0 90.0)
           (-90.0 90.0)
           (-90.0 90.0)
  end
  begin
     id 19
     name lradius
     direction 1 -4.48925e-011 -9.0549e-027   
     length 3.69232   
     axis 180 -30 -90   XYZ
    dof rx
    limits (-10.0 170.0)
  end
  begin
     id 20
     name lwrist
     direction 1 -4.49007e-011 -1.49005e-026   
     length 1.84616   
     axis 9.0955e-015 90 90   XYZ
    dof ry
    limits (-180.0 0.0)
 end
  begin
     id 21 
     name lhand
     direction 1 -4.49016e-011 -2.98023e-026   
     length 0.536598   
     axis 1.90115e-014 90 90   XYZ
    dof rx rz
    limits (-90.0 90.0)
           (-45.0 45.0)
  end
  begin
     id 22 
     name lfingers
     direction 1 -4.48924e-011 -5.9578e-026   
     length 0.432619   
     axis 3.80223e-014 90 90   XYZ
    dof rx
    limits (0.0 90.0)
  end
  begin
     id 23
     name lthumb
     direction 0.707107 -6.34947e-011 0.707107   
     length 0.621157   
     axis -90 45 -3.84942e-014   XYZ
    dof rx rz
    limits (-45.0 45.0)
           (-45.0 45.0)
  end
  begin
     id 24 
     name rclavicle
     direction -0.955495 0.276497 -0.102848   
     length 3.36357  
     axis 0 0 0   XYZ 
    dof ry rz
    limits (-10.0 20.0)
           (-20.0 0.0)
  end
  begin
     id 25 
     name rhumerus
     direction -1 -4.48961e-011 3.30983e-027  
     length 5.23431   
     axis 180 30 90   XYZ
    dof rx ry rz
    limits (-90.0 60.0)
           (-90.0 90.0)
           (-90.0 90.0)
  end
  begin
     id 26 
     name rradius
     direction -1 -4.48965e-011 -6.63263e-027   
     length 3.55301   
     axis 180 30 90   XYZ
    dof rx
    limits (-10.0 170.0)
  end
  begin
     id 27 
     name rwrist
     direction -1 -4.48942e-011 -1.48958e-026   
     length 1.77651   
     axis 9.0955e-015 -90 -90   XYZ
    dof ry
    limits (-180.0 0.0)
  end
  begin
     id 28
     name rhand
     direction -1 -4.48977e-011 -2.97966e-026   
     length 0.772522   
     axis 1.90115e-014 -90 -90   XYZ
    dof rx rz
    limits (-90.0 90.0)
           (-45.0 45.0)
  end
  begin
     id 29
     name rfingers
     direction -1 -4.49135e-011 -5.96389e-026   
     length 0.622827   
     axis 3.80223e-014 -90 -90   XYZ
    dof rx
    limits (0.0 90.0)
  end
  begin
     id 30
     name rthumb
     direction -0.707107 -6.34969e-011 0.707107   
     length 0.894259   
     axis -90 -45 3.84942e-014   XYZ
    dof rx rz
    limits (-45.0 45.0)
           (-45.0 45.0)
  end
:hierarchy
  begin
    root lhipjoint rhipjoint lowerback
    lhipjoint lfemur
    lfemur ltibia
    ltibia lfoot
    lfoot ltoes
    rhipjoint rfemur
    rfemur rtibia
    rtibia rfoot
    rfoot rtoes
    lowerback upperback
    upperback thorax
    thorax lowerneck lclavicle rclavicle
    lowerneck upperneck
    upperneck head
    lclavicle lhumerus
    lhumerus lradius
    lradius lwrist
    lwrist lhand lthumb
    lhand lfingers
    rclavicle rhumerus
    rhumerus rradius
    rradius rwrist
    rwrist rhand rthumb
    rhand rfingers
  end

#!OML:ASF F:\VICON\USERDATA\INSTALL\rory3\rory3.ASF
:FULLY-SPECIFIED
:DEGREES
1
root 16.0313 17.8557 -10.196 -5.85937 -76.7351 8.03701
lowerback 8.34508 1.00405 1.15532
upperback -1.01697 1.53664 1.58021
thorax -5.76089 0.741461 0.796379
lowerneck -26.9339 -0.121632 -7.22252
upperneck 25.8055 1.9446 2.76341
head 13.0319 0.470318 2.63616
rclavicle -4.27387e-015 -7.95139e-016
rhumerus -39.0363 -20.7249 -71.9275
rradius 28.7439
rwrist 7.99462
rhand -12.5126 9.28501
rfingers 7.12502
rthumb 13.563 -20.2532
lclavicle -4.27387e-015 -7.95139e-016
lhumerus -38.5426 19.0595 77.5299
lradius 30.4964
lwrist -3.4682
lhand -20.378 21.7637
lfingers 7.12502
lthumb 5.97485 51.6595
rfemur -10.69 -2.74574 21.782
rtibia 32.8903
rfoot -19.6861 -7.13443
rtoes 2.68815
lfemur -9.41846 -6.25423 -21.6296
ltibia 25.1926
lfoot -13.9121 -0.65131
ltoes -14.3251
2
root 16.0275 17.8581 -10.1991 -6.01706 -76.6905 8.20785
lowerback 8.29877 0.888634 1.08963
upperback -0.921367 1.36644 1.44737
thorax -5.63087 0.658531 0.718277
lowerneck -26.8792 0.235381 -6.77711
upperneck 25.5385 2.11108 3.24435
head 12.8941 0.670737 2.77438
rclavicle 4.36829e-014 1.82882e-014
rhumerus -38.8359 -21.2656 -72.2136
rradius 28.5265
rwrist 8.50919
rhand -12.6344 9.21813
rfingers 7.12502
rthumb 13.4456 -20.3279
lclavicle 4.36829e-014 1.82882e-014
lhumerus -38.4167 18.9469 77.4546
lradius 30.8674
lwrist -2.99982
lhand -19.9182 22.2867
lfingers 7.12502
lthumb 6.41882 52.1695
rfemur -10.6935 -2.5255 21.76
rtibia 32.9322
rfoot -19.712 -7.27733
rtoes 3.00186
lfemur -9.37585 -6.35257 -21.6756
ltibia 25.0956
lfoot -13.9172 -0.534969
ltoes -14.3689
3
root 16.0239 17.8586 -10.2023 -6.26267 -76.6015 8.57175
lowerback 8.15963 0.942479 1.05436
upperback -0.977865 1.43452 1.46983
thorax -5.61317 0.693802 0.754476
lowerneck -26.5275 -0.223978 -8.40999
upperneck 25.3521 1.77369 4.3426
head 12.7412 0.522174 3.40325
rclavicle 4.1546e-014 1.19271e-014
rhumerus -39.0448 -20.8713 -72.1533
rradius 28.6047
rwrist 7.87652
rhand -12.8199 8.98194
rfingers 7.12502
rthumb 13.2668 -20.5758
lclavicle 4.1546e-014 1.19271e-014
lhumerus -38.4211 18.5575 77.8964
lradius 31.0292
lwrist -2.84786
lhand -20.113 22.8631
lfingers 7.12502
lthumb 6.23072 52.7514
rfemur -10.818 -2.53893 21.6729
rtibia 32.9597
rfoot -19.7038 -7.33831
rtoes 2.73739
lfemur -9.477 -6.42278 -21.7626
ltibia 25.0646
lfoot -13.9276 -0.493338
ltoes -14.7373
4
root 16.0218 17.8595 -10.2037 -6.12509 -76.5292 8.48094
lowerback 8.09131 0.937541 1.1325
upperback -0.975679 1.43312 1.44735
thorax -5.56959 0.69056 0.688413
lowerneck -26.6079 0.0217143 -7.5808
upperneck 25.4625 1.95146 3.79281
head 12.8039 0.600715 3.08684
rclavicle -2.25124e-014 -1.90833e-014
rhumerus -39.1817 -19.9894 -72.6477
rradius 28.9232
rwrist 6.84947
rhand -13.0168 8.67526
rfingers 7.12502
rthumb 13.077 -20.8948
lclavicle -2.25124e-014 -1.90833e-014
lhumerus -38.2748 18.1402 78.1517
lradius 31.0523
lwrist -2.66824
lhand -20.3497 22.9487
lfingers 7.12502
lthumb 6.00221 52.8437
rfemur -10.8803 -2.62235 21.6944
rtibia 32.981
rfoot -19.7077 -7.36781
rtoes 2.65945
lfemur -9.51326 -6.39504 -21.7358
ltibia 25.0249
lfoot -13.9059 -0.564432
ltoes -14.8806
5
root 16.0193 17.8595 -10.2053 -5.8533 -76.5161 8.22432
lowerback 8.09062 0.887311 1.13398
upperback -0.982645 1.36679 1.45487
thorax -5.57631 0.657885 0.703848
lowerneck -26.3637 -0.157669 -8.40999
upperneck 25.2402 1.81721 4.4558
head 12.6584 0.561106 3.44866
rclavicle 8.79622e-015 1.43125e-014
rhumerus -39.3886 -18.9927 -73.2986
rradius 29.4243
rwrist 6.00133
rhand -12.8841 8.53358
rfingers 7.12502
rthumb 13.2049 -21.0282
lclavicle 8.79622e-015 1.43125e-014
lhumerus -38.2052 18.0825 78.1075
lradius 31.0651
lwrist -2.81952
lhand -19.9786 22.4713
lfingers 7.12502
lthumb 6.36044 52.3558
rfemur -10.8996 -2.6322 21.777
rtibia 32.9844
rfoot -19.7363 -7.42536
rtoes 2.48847
lfemur -9.53753 -6.30972 -21.6507
ltibia 25.0174
lfoot -13.9337 -0.657601
ltoes -15.1174
6
root 16.0189 17.8623 -10.2098 -5.85267 -76.4777 8.30198
lowerback 8.07159 0.851406 1.05141
upperback -1.01507 1.31182 1.46616
thorax -5.60137 0.633559 0.769124
lowerneck -25.7321 -0.101821 -8.68423
upperneck 24.6317 1.87111 4.72105
head 12.2822 0.614679 3.5747
rclavicle 1.55052e-014 1.74931e-014
rhumerus -39.5261 -18.5287 -73.5299
rradius 29.6987
rwrist 5.75486
rhand -12.7245 8.36778
rfingers 7.12502
rthumb 13.3588 -21.184
lclavicle 1.55052e-014 1.74931e-014
lhumerus -37.9876 17.6361 78.301
lradius 30.964
lwrist -2.45619
lhand -19.655 22.0982
lfingers 7.12502
lthumb 6.67288 51.973
rfemur -10.9797 -2.52463 21.7839
rtibia 32.956
rfoot -19.7458 -7.49262
rtoes 3.09623
lfemur -9.65491 -6.17453 -21.637
ltibia 25.0468
lfoot -14.0211 -0.820555
ltoes -15.6148
7
root 16.022 17.8639 -10.2154 -5.39641 -76.4055 7.81946
lowerback 8.13812 0.83844 1.15141
upperback -1.00706 1.30702 1.49982
thorax -5.62933 0.628188 0.747793
lowerneck -25.4723 -0.121506 -8.92083
upperneck 24.3637 1.84115 4.96947
head 12.123 0.621794 3.69072
rclavicle 1.92821e-014 -2.38542e-015
rhumerus -39.5479 -18.3589 -73.6014
rradius 29.8353
rwrist 5.50903
rhand -12.7544 8.09749
rfingers 7.12502
rthumb 13.3299 -21.4562
lclavicle 1.92821e-014 -2.38542e-015
lhumerus -37.6097 16.7437 78.7794
lradius 30.8182
lwrist -1.36734
lhand -19.9803 22.2369
lfingers 7.12502
lthumb 6.35881 52.1214
rfemur -10.958 -2.42067 21.9422
rtibia 32.9029
rfoot -19.6965 -7.58016
rtoes 3.71791
lfemur -9.70815 -6.1152 -21.4884
ltibia 25.0959
lfoot -14.0002 -0.926286
ltoes -15.5695
8
root 16.0228 17.8638 -10.2181 -4.93526 -76.3758 7.29295
lowerback 8.24441 0.831771 1.23299
upperback -1.01901 1.31181 1.56466
thorax -5.7021 0.628297 0.767482
lowerneck -25.3916 -0.152739 -8.99063
upperneck 24.3343 1.80675 5.0017
head 12.0979 0.604676 3.70637
rclavicle 1.2275e-014 -8.74653e-015
rhumerus -39.6218 -18.1837 -73.6334
rradius 29.9368
rwrist 5.24758
rhand -12.5736 7.94413
rfingers 7.12502
rthumb 13.5042 -21.598
lclavicle 1.2275e-014 -8.74653e-015
lhumerus -37.5236 16.5341 78.994
lradius 30.851
lwrist -1.06445
lhand -20.0494 22.6251
lfingers 7.12502
lthumb 6.29208 52.5117
rfemur -10.8753 -2.39701 22.0965
rtibia 32.8412
rfoot -19.6525 -7.61312
rtoes 3.81639
lfemur -9.70057 -6.17539 -21.3345
ltibia 25.1469
lfoot -13.9661 -0.990248
ltoes -14.8679
9
root 16.0186 17.8642 -10.2198 -4.72805 -76.37 7.03923
lowerback 8.24748 0.821847 1.25726
upperback -0.997593 1.30263 1.61194
thorax -5.68194 0.623614 0.804432
lowerneck -25.5799 -0.189818 -8.89787
upperneck 24.5328 1.78669 4.8244
head 12.2179 0.57349 3.62955
rclavicle -1.41634e-014 -3.97569e-015
rhumerus -39.6396 -18.1877 -73.6117
rradius 29.9242
rwrist 5.25254
rhand -12.5084 7.96767
rfingers 7.12502
rthumb 13.5671 -21.5703
lclavicle -1.41634e-014 -3.97569e-015
lhumerus -37.5098 16.7824 79.0121
lradius 30.9079
lwrist -1.42548
lhand -19.6416 22.5973
lfingers 7.12502
lthumb 6.68581 52.4717
rfemur -10.7744 -2.46571 22.1609
rtibia 32.763
rfoot -19.6689 -7.57248
rtoes 3.7337
lfemur -9.69241 -6.21034 -21.2562
ltibia 25.2335
lfoot -14.062 -1.08663
ltoes -14.3677
10
root 16.0142 17.8627 -10.2212 -4.60607 -76.3781 6.89719
lowerback 8.20471 0.832532 1.30469
upperback -0.974878 1.32 1.61319
thorax -5.63289 0.630856 0.777513
lowerneck -25.7551 -0.22776 -8.75397
upperneck 24.731 1.75925 4.59403
head 12.3376 0.536198 3.5217
rclavicle -1.78906e-015 7.95139e-015
rhumerus -39.6795 -18.2265 -73.6103
rradius 29.9718
rwrist 5.2385
rhand -12.4876 8.04135
rfingers 7.12502
rthumb 13.5871 -21.4953
lclavicle -1.78906e-015 7.95139e-015
lhumerus -37.4609 16.7118 79.1239
lradius 31.0242
lwrist -1.55699
lhand -19.2718 22.3479
lfingers 7.12502
lthumb 7.04283 52.2108
rfemur -10.7086 -2.47401 22.2094
rtibia 32.6874
rfoot -19.622 -7.63721
rtoes 3.47594
lfemur -9.69749 -6.29951 -21.2136
ltibia 25.3186
lfoot -14.1557 -1.04851
ltoes -14.185
11
root 16.0125 17.8609 -10.2236 -4.148 -76.3395 6.43121
lowerback 8.20372 0.827456 1.43704
upperback -0.984118 1.32689 1.62124
thorax -5.63935 0.630012 0.710652
lowerneck -25.3889 -0.236536 -8.89583
upperneck 24.4243 1.7149 4.77414
head 12.1456 0.537149 3.59062
rclavicle -1.83876e-014 -7.95139e-016
rhumerus -39.7328 -18.273 -73.6241
rradius 30.05
rwrist 5.18063
rhand -12.4424 8.05422
rfingers 7.12502
rthumb 13.6307 -21.4795
lclavicle -1.83876e-014 -7.95139e-016
lhumerus -37.408 16.4881 79.2834
lradius 31.184
lwrist -1.49711
lhand -19.325 22.342
lfingers 7.12502
lthumb 6.99144 52.2065
rfemur -10.6851 -2.4432 22.3549
rtibia 32.6289
rfoot -19.5412 -7.76751
rtoes 3.32166
lfemur -9.73711 -6.38101 -21.092
ltibia 25.377
lfoot -14.1626 -0.949278
ltoes -14.6449
